<svg xmlns="http://www.w3.org/2000/svg" xmlns:xlink="http://www.w3.org/1999/xlink" width="260" height="260" viewBox="0 0 260 260" fill="none"><g opacity="1"  transform="translate(0 0)"><rect fill="#9772ED" opacity="0.25" transform="translate(0 0)" x="0" y="0" width="260" height="260" rx="130" ry="130"/><mask id="bg-mask-0" fill="white"><use transform="translate(0 0)" xlink:href="#path_0"></use></mask><g mask="url(#bg-mask-0)" ><g opacity="1"  transform="translate(0 157)"><path id="三角形 1" fill-rule="evenodd" style="fill:#9772ED" opacity="1" d="M110.05 108.67L239.95 108.67L175 25L110.05 108.67Z"></path><path id="三角形 1" fill-rule="evenodd" style="fill:#9772ED" opacity="1" d="M13.4 111L186.6 111L100 0L13.4 111Z"></path></g><g opacity="1"  transform="translate(142 48)"><mask id="bg-mask-1" fill="white"><use transform="translate(0 0)" xlink:href="#path_1"></use></mask><g mask="url(#bg-mask-1)" ><path id="路径 1" fill-rule="evenodd" style="fill:#9772ED" opacity="1" d="M31.1231 7.21875L30.0093 13.0639L28.679 13.3547C28.3945 13.417 28.1114 13.4855 27.8298 13.5602C27.5482 13.6349 27.2684 13.7157 26.9904 13.8026C26.7124 13.8896 26.4364 13.9826 26.1624 14.0816C25.8884 14.1806 25.6167 14.2856 25.3474 14.3966C25.078 14.5075 24.8112 14.6243 24.5469 14.7469C24.2827 14.8695 24.0213 14.9978 23.7626 15.1318C23.504 15.2659 23.2483 15.4056 22.9958 15.5508C22.7433 15.6961 22.4941 15.8468 22.2482 16.0029L21.0437 16.7661L16.3205 13.2186L13.4434 16.0957L16.7887 21.021L16.0545 22.1657C15.8972 22.4109 15.7453 22.6594 15.5989 22.9113C15.4525 23.1631 15.3116 23.4181 15.1763 23.6761C15.041 23.9341 14.9115 24.195 14.7876 24.4587C14.6637 24.7223 14.5457 24.9886 14.4335 25.2574C14.3213 25.5263 14.2149 25.7975 14.1146 26.0709C14.0142 26.3444 13.9199 26.62 13.8316 26.8977C13.7433 27.1753 13.6611 27.4547 13.585 27.7359C13.5089 28.0171 13.439 28.2999 13.3753 28.5842L13.0659 29.9764L7.21874 30.8075L7.21874 34.8748L13.0639 35.9906L13.3547 37.3209C13.417 37.6055 13.4856 37.8885 13.5603 38.1701C13.635 38.4517 13.7159 38.7315 13.8029 39.0095C13.8898 39.2875 13.9828 39.5635 14.0819 39.8375C14.181 40.1115 14.2859 40.3831 14.3968 40.6525C14.5077 40.9218 14.6245 41.1887 14.7471 41.4529C14.8697 41.7172 14.998 41.9786 15.132 42.2373C15.2661 42.4959 15.4057 42.7515 15.5509 43.0041C15.6961 43.2566 15.8468 43.5058 16.0029 43.7518L16.766 44.9563L13.2185 49.6794L16.0957 52.5566L21.021 49.2112L22.1657 49.9455C22.4109 50.1028 22.6594 50.2546 22.9113 50.4011C23.1631 50.5474 23.4181 50.6883 23.6761 50.8236C23.9341 50.9589 24.195 51.0885 24.4586 51.2123C24.7223 51.3362 24.9886 51.4542 25.2574 51.5665C25.5262 51.6787 25.7975 51.785 26.0709 51.8854C26.3444 51.9857 26.62 52.08 26.8977 52.1683C27.1753 52.2567 27.4547 52.3389 27.7359 52.4149C28.0171 52.491 28.2999 52.5609 28.5842 52.6246L29.9763 52.934L30.8075 58.7812L34.8748 58.7812L35.9906 52.9361L37.3209 52.6453C37.6055 52.5829 37.8885 52.5144 38.1701 52.4397C38.4517 52.365 38.7314 52.2841 39.0095 52.1971C39.2875 52.1101 39.5635 52.0172 39.8375 51.9181C40.1115 51.819 40.3831 51.7141 40.6525 51.6031C40.9218 51.4922 41.1887 51.3754 41.4529 51.2528C41.7172 51.1302 41.9786 51.0019 42.2372 50.8679C42.4959 50.7338 42.7515 50.5942 43.004 50.449C43.2566 50.3038 43.5058 50.1531 43.7518 49.997L44.9563 49.2339L49.6794 52.7814L52.5566 49.9042L49.2112 44.979L49.9454 43.8343C50.1028 43.589 50.2546 43.3405 50.4011 43.0887C50.5475 42.8368 50.6883 42.5818 50.8236 42.3238C50.9589 42.0658 51.0885 41.805 51.2123 41.5413C51.3362 41.2776 51.4542 41.0113 51.5664 40.7425C51.6786 40.4736 51.785 40.2025 51.8853 39.9289C51.9857 39.6555 52.08 39.3799 52.1684 39.1023C52.2567 38.8247 52.3388 38.5452 52.4149 38.264C52.491 37.9828 52.5609 37.7001 52.6246 37.4158L52.934 36.0236L58.7812 35.1924L58.7812 31.1231L52.9361 30.0073L52.6452 28.677C52.5829 28.3924 52.5143 28.1093 52.4396 27.8278C52.3649 27.5462 52.2841 27.2664 52.1971 26.9884C52.1102 26.7104 52.0172 26.4344 51.9181 26.1604C51.819 25.8864 51.714 25.6147 51.6031 25.3454C51.4922 25.076 51.3754 24.8092 51.2528 24.545C51.1302 24.2807 51.0019 24.0193 50.8679 23.7606C50.7338 23.502 50.5942 23.2464 50.449 22.9938C50.3038 22.7413 50.1531 22.4921 49.997 22.2461L49.2339 21.0416L52.7814 16.3185L49.9042 13.4413L44.9789 16.7867L43.8343 16.0524C43.589 15.8952 43.3405 15.7433 43.0886 15.5969C42.8368 15.4505 42.5818 15.3097 42.3238 15.1744C42.0658 15.0391 41.8049 14.9095 41.5412 14.7857C41.2775 14.6618 41.0113 14.5438 40.7424 14.4316C40.4736 14.3193 40.2024 14.213 39.9289 14.1126C39.6554 14.0123 39.3798 13.9179 39.1022 13.8296C38.8246 13.7413 38.5452 13.6591 38.264 13.583C37.9828 13.5069 37.7001 13.437 37.4158 13.3732L36.0236 13.0639L35.1924 7.21668L31.1231 7.21668L31.1231 7.21875ZM26.4618 9.65868L27.7138 3.09375L38.7729 3.09375L39.7155 9.70818C41.5201 10.2279 43.2506 10.9539 44.8799 11.8717L50.4095 8.11387L58.2305 15.9349L54.2169 21.2767C55.1244 22.9144 55.838 24.651 56.3412 26.4598L62.9082 27.7117L62.9082 38.7708L56.2938 39.7134C56.1644 40.163 56.022 40.6083 55.8667 41.0496C55.7113 41.4909 55.5433 41.9272 55.3625 42.3587C55.1817 42.7902 54.9886 43.216 54.7831 43.6362C54.5776 44.0564 54.3599 44.4704 54.1302 44.8779L57.8881 50.4075L50.0671 58.2285L44.7253 54.2148C43.0876 55.1223 41.351 55.836 39.5422 56.3392L38.2903 62.9062L27.2312 62.9062L26.2886 56.2918C25.839 56.1623 25.3937 56.02 24.9524 55.8646C24.5111 55.7093 24.0748 55.5413 23.6433 55.3605C23.2118 55.1797 22.786 54.9866 22.3658 54.781C21.9456 54.5755 21.5316 54.3578 21.1241 54.1282L15.5925 57.8861L7.77149 50.0651L11.7851 44.7232C11.5585 44.3137 11.344 43.8981 11.1416 43.4761C10.9392 43.0541 10.7493 42.6267 10.5718 42.1936C10.3943 41.7606 10.2296 41.3227 10.0776 40.8801C9.92564 40.4375 9.78668 39.9909 9.66074 39.5402L3.09375 38.2882L3.09375 27.2291L9.70818 26.2865C10.2279 24.4839 10.9539 22.7514 11.8717 21.122L8.11387 15.5925L15.9349 7.7715L21.2767 11.7851C21.6862 11.5585 22.1019 11.344 22.5238 11.1416C22.9458 10.9392 23.3733 10.7493 23.8063 10.5718C24.2394 10.3943 24.6772 10.2296 25.1198 10.0776C25.5624 9.92565 26.0091 9.78669 26.4598 9.66074L26.4618 9.65868Z"></path><path id="路径 2" fill-rule="evenodd" style="fill:#9772ED" opacity="1" d="M33 45.375C32.7975 45.375 32.5951 45.37 32.3928 45.3601C32.1905 45.3501 31.9886 45.3352 31.787 45.3154C31.5855 45.2955 31.3845 45.2708 31.1842 45.241C30.9838 45.2113 30.7843 45.1767 30.5858 45.1372C30.3871 45.0977 30.1896 45.0533 29.9931 45.0041C29.7967 44.9549 29.6015 44.9009 29.4077 44.8421C29.2139 44.7833 29.0217 44.7198 28.831 44.6516C28.6403 44.5833 28.4514 44.5105 28.2643 44.433C28.0772 44.3555 27.8921 44.2734 27.709 44.1868C27.5259 44.1003 27.3451 44.0092 27.1665 43.9138C26.9879 43.8183 26.8117 43.7185 26.638 43.6144C26.4642 43.5103 26.2932 43.4019 26.1248 43.2894C25.9564 43.1769 25.7909 43.0603 25.6282 42.9397C25.4656 42.819 25.3059 42.6944 25.1494 42.566C24.9928 42.4375 24.8395 42.3053 24.6895 42.1693C24.5394 42.0332 24.3927 41.8936 24.2495 41.7504C24.1063 41.6072 23.9667 41.4606 23.8307 41.3105C23.6947 41.1605 23.5625 41.0071 23.434 40.8506C23.3055 40.694 23.181 40.5344 23.0603 40.3717C22.9396 40.2091 22.8231 40.0435 22.7106 39.8751C22.598 39.7067 22.4897 39.5357 22.3856 39.362C22.2815 39.1883 22.1817 39.0121 22.0862 38.8335C21.9907 38.6549 21.8997 38.474 21.8131 38.2909C21.7265 38.1079 21.6445 37.9228 21.567 37.7357C21.4895 37.5486 21.4166 37.3597 21.3484 37.169C21.2802 36.9783 21.2167 36.7861 21.1578 36.5923C21.0991 36.3985 21.0451 36.2033 20.9959 36.0069C20.9467 35.8104 20.9023 35.6129 20.8628 35.4142C20.8233 35.2156 20.7887 35.0161 20.7589 34.8158C20.7292 34.6154 20.7045 34.4145 20.6846 34.2129C20.6648 34.0114 20.6499 33.8095 20.6399 33.6072C20.63 33.4049 20.625 33.2025 20.625 33C20.625 32.7975 20.63 32.5951 20.6399 32.3928C20.6499 32.1905 20.6648 31.9886 20.6846 31.787C20.7045 31.5855 20.7292 31.3845 20.7589 31.1842C20.7887 30.9838 20.8233 30.7843 20.8628 30.5858C20.9023 30.3871 20.9467 30.1896 20.9959 29.9931C21.0451 29.7967 21.0991 29.6015 21.1578 29.4077C21.2167 29.2139 21.2802 29.0217 21.3484 28.831C21.4166 28.6403 21.4895 28.4514 21.567 28.2643C21.6445 28.0772 21.7265 27.8921 21.8131 27.709C21.8997 27.5259 21.9907 27.3451 22.0862 27.1665C22.1817 26.9879 22.2815 26.8117 22.3856 26.638C22.4897 26.4642 22.598 26.2932 22.7106 26.1248C22.8231 25.9564 22.9396 25.7909 23.0603 25.6282C23.181 25.4656 23.3055 25.3059 23.434 25.1494C23.5625 24.9928 23.6947 24.8395 23.8307 24.6895C23.9667 24.5394 24.1063 24.3927 24.2495 24.2495C24.3927 24.1063 24.5394 23.9667 24.6895 23.8307C24.8395 23.6947 24.9928 23.5625 25.1493 23.434C25.3059 23.3055 25.4656 23.181 25.6282 23.0603C25.7909 22.9396 25.9564 22.8231 26.1248 22.7106C26.2932 22.598 26.4642 22.4897 26.638 22.3856C26.8117 22.2815 26.9879 22.1817 27.1665 22.0862C27.3451 21.9907 27.5259 21.8997 27.709 21.8131C27.8921 21.7265 28.0772 21.6445 28.2643 21.567C28.4514 21.4895 28.6403 21.4166 28.831 21.3484C29.0217 21.2802 29.2139 21.2167 29.4077 21.1578C29.6015 21.0991 29.7967 21.0451 29.9931 20.9959C30.1896 20.9467 30.3871 20.9023 30.5858 20.8628C30.7843 20.8233 30.9838 20.7887 31.1842 20.7589C31.3845 20.7292 31.5855 20.7045 31.787 20.6846C31.9886 20.6648 32.1905 20.6499 32.3928 20.6399C32.5951 20.63 32.7975 20.625 33 20.625C33.2025 20.625 33.4049 20.63 33.6072 20.6399C33.8095 20.6499 34.0114 20.6648 34.2129 20.6846C34.4145 20.7045 34.6154 20.7292 34.8158 20.7589C35.0161 20.7887 35.2156 20.8233 35.4142 20.8628C35.6129 20.9023 35.8104 20.9467 36.0069 20.9959C36.2033 21.0451 36.3985 21.0991 36.5923 21.1578C36.7861 21.2167 36.9783 21.2802 37.169 21.3484C37.3597 21.4166 37.5486 21.4895 37.7357 21.567C37.9228 21.6445 38.1079 21.7265 38.2909 21.8131C38.474 21.8997 38.6549 21.9907 38.8335 22.0862C39.0121 22.1817 39.1883 22.2815 39.362 22.3856C39.5357 22.4897 39.7067 22.598 39.8751 22.7106C40.0435 22.8231 40.2091 22.9396 40.3717 23.0603C40.5344 23.181 40.694 23.3055 40.8506 23.434C41.0071 23.5625 41.1605 23.6947 41.3105 23.8307C41.4606 23.9667 41.6072 24.1063 41.7504 24.2495C41.8936 24.3927 42.0332 24.5394 42.1693 24.6895C42.3053 24.8395 42.4375 24.9928 42.566 25.1493C42.6944 25.3059 42.819 25.4656 42.9397 25.6282C43.0603 25.7909 43.1769 25.9564 43.2894 26.1248C43.4019 26.2932 43.5103 26.4642 43.6144 26.638C43.7185 26.8117 43.8183 26.9879 43.9138 27.1665C44.0092 27.3451 44.1003 27.5259 44.1868 27.709C44.2734 27.8921 44.3555 28.0772 44.433 28.2643C44.5105 28.4514 44.5833 28.6403 44.6516 28.831C44.7198 29.0217 44.7833 29.2139 44.8421 29.4077C44.9009 29.6015 44.9549 29.7967 45.0041 29.9931C45.0533 30.1896 45.0977 30.3871 45.1372 30.5858C45.1767 30.7843 45.2113 30.9838 45.241 31.1842C45.2708 31.3845 45.2955 31.5855 45.3154 31.787C45.3352 31.9886 45.3501 32.1905 45.3601 32.3928C45.37 32.5951 45.375 32.7975 45.375 33C45.375 33.2025 45.37 33.4049 45.3601 33.6072C45.3501 33.8095 45.3352 34.0114 45.3154 34.2129C45.2955 34.4145 45.2708 34.6154 45.241 34.8158C45.2113 35.0161 45.1767 35.2156 45.1372 35.4142C45.0977 35.6129 45.0533 35.8104 45.0041 36.0069C44.9549 36.2033 44.9009 36.3985 44.8421 36.5923C44.7833 36.7861 44.7198 36.9783 44.6516 37.169C44.5833 37.3597 44.5105 37.5486 44.433 37.7357C44.3555 37.9228 44.2734 38.1079 44.1868 38.2909C44.1003 38.474 44.0092 38.6549 43.9138 38.8335C43.8183 39.0121 43.7185 39.1883 43.6144 39.362C43.5103 39.5357 43.4019 39.7067 43.2894 39.8751C43.1769 40.0435 43.0603 40.2091 42.9397 40.3717C42.819 40.5344 42.6944 40.694 42.566 40.8506C42.4375 41.0071 42.3053 41.1605 42.1693 41.3105C42.0332 41.4606 41.8936 41.6072 41.7504 41.7504C41.6072 41.8936 41.4606 42.0332 41.3105 42.1693C41.1605 42.3053 41.0071 42.4375 40.8506 42.566C40.694 42.6944 40.5344 42.819 40.3717 42.9397C40.2091 43.0603 40.0435 43.1769 39.8751 43.2894C39.7067 43.4019 39.5357 43.5103 39.362 43.6144C39.1883 43.7185 39.0121 43.8183 38.8335 43.9138C38.6549 44.0092 38.474 44.1003 38.2909 44.1868C38.1079 44.2734 37.9228 44.3555 37.7357 44.433C37.5486 44.5105 37.3597 44.5833 37.169 44.6516C36.9783 44.7198 36.7861 44.7833 36.5923 44.8421C36.3985 44.9009 36.2033 44.9549 36.0069 45.0041C35.8104 45.0533 35.6129 45.0977 35.4142 45.1372C35.2156 45.1767 35.0161 45.2113 34.8158 45.241C34.6154 45.2708 34.4145 45.2955 34.2129 45.3154C34.0114 45.3352 33.8095 45.3501 33.6072 45.3601C33.4049 45.37 33.2025 45.375 33 45.375ZM33 41.25C33.135 41.25 33.2699 41.2467 33.4048 41.2401C33.5396 41.2334 33.6742 41.2235 33.8086 41.2103C33.943 41.1971 34.0769 41.1805 34.2105 41.1607C34.3441 41.1409 34.4771 41.1179 34.6094 41.0915C34.7419 41.0651 34.8736 41.0355 35.0045 41.0027C35.1355 40.9699 35.2656 40.9339 35.3948 40.8947C35.524 40.8555 35.6522 40.8132 35.7793 40.7677C35.9064 40.7222 36.0324 40.6736 36.1571 40.622C36.2818 40.5703 36.4052 40.5156 36.5273 40.4579C36.6494 40.4002 36.77 40.3394 36.889 40.2758C37.0081 40.2122 37.1255 40.1456 37.2413 40.0762C37.3571 40.0068 37.4712 39.9346 37.5834 39.8596C37.6957 39.7846 37.8061 39.7068 37.9145 39.6265C38.0229 39.546 38.1294 39.463 38.2337 39.3773C38.3381 39.2916 38.4403 39.2035 38.5404 39.1128C38.6404 39.0222 38.7382 38.9291 38.8336 38.8336C38.9291 38.7382 39.0222 38.6404 39.1128 38.5404C39.2035 38.4403 39.2916 38.3381 39.3773 38.2337C39.463 38.1294 39.546 38.0229 39.6265 37.9145C39.7068 37.8061 39.7846 37.6957 39.8596 37.5834C39.9346 37.4712 40.0068 37.3571 40.0762 37.2413C40.1456 37.1255 40.2122 37.0081 40.2758 36.889C40.3394 36.77 40.4002 36.6494 40.4579 36.5273C40.5156 36.4052 40.5703 36.2818 40.622 36.1571C40.6736 36.0324 40.7222 35.9064 40.7677 35.7793C40.8132 35.6522 40.8555 35.524 40.8947 35.3948C40.934 35.2656 40.9699 35.1355 41.0027 35.0045C41.0355 34.8736 41.0651 34.7419 41.0915 34.6094C41.1179 34.4771 41.1409 34.3441 41.1607 34.2105C41.1805 34.0769 41.1971 33.943 41.2103 33.8086C41.2235 33.6742 41.2334 33.5396 41.2401 33.4048C41.2467 33.2699 41.25 33.135 41.25 33C41.25 32.865 41.2467 32.7301 41.2401 32.5952C41.2334 32.4603 41.2235 32.3257 41.2103 32.1914C41.1971 32.057 41.1805 31.923 41.1607 31.7894C41.1409 31.6559 41.1179 31.5229 41.0915 31.3905C41.0651 31.2581 41.0355 31.1264 41.0027 30.9954C40.9699 30.8644 40.9339 30.7343 40.8947 30.6052C40.8555 30.4759 40.8132 30.3478 40.7677 30.2206C40.7222 30.0935 40.6736 29.9676 40.622 29.8428C40.5703 29.7181 40.5156 29.5947 40.4579 29.4727C40.4002 29.3506 40.3394 29.23 40.2758 29.111C40.2122 28.9919 40.1456 28.8745 40.0762 28.7587C40.0068 28.6428 39.9346 28.5288 39.8596 28.4165C39.7846 28.3043 39.7068 28.1939 39.6265 28.0854C39.546 27.977 39.463 27.8706 39.3773 27.7663C39.2916 27.6619 39.2035 27.5597 39.1128 27.4596C39.0222 27.3596 38.9291 27.2618 38.8336 27.1663C38.7382 27.0709 38.6404 26.9778 38.5404 26.8871C38.4403 26.7965 38.3381 26.7083 38.2337 26.6227C38.1294 26.537 38.0229 26.4539 37.9145 26.3735C37.8061 26.2931 37.6957 26.2154 37.5834 26.1404C37.4712 26.0654 37.3571 25.9931 37.2413 25.9237C37.1255 25.8543 37.0081 25.7878 36.889 25.7241C36.77 25.6605 36.6494 25.5998 36.5273 25.5421C36.4052 25.4844 36.2818 25.4297 36.1571 25.378C36.0324 25.3263 35.9064 25.2777 35.7793 25.2322C35.6522 25.1868 35.524 25.1444 35.3948 25.1053C35.2656 25.066 35.1355 25.03 35.0045 24.9972C34.8736 24.9645 34.7419 24.9349 34.6094 24.9085C34.4771 24.8821 34.3441 24.8591 34.2105 24.8393C34.0769 24.8195 33.943 24.8029 33.8086 24.7897C33.6742 24.7765 33.5396 24.7665 33.4048 24.7599C33.2699 24.7533 33.135 24.75 33 24.75C32.865 24.75 32.7301 24.7533 32.5952 24.7599C32.4603 24.7665 32.3257 24.7765 32.1914 24.7897C32.057 24.8029 31.923 24.8195 31.7894 24.8393C31.6559 24.8591 31.5229 24.8821 31.3905 24.9085C31.2581 24.9349 31.1264 24.9645 30.9954 24.9972C30.8644 25.03 30.7343 25.066 30.6052 25.1053C30.4759 25.1444 30.3478 25.1868 30.2206 25.2322C30.0935 25.2777 29.9676 25.3263 29.8428 25.378C29.7181 25.4297 29.5947 25.4844 29.4727 25.5421C29.3506 25.5998 29.23 25.6605 29.111 25.7241C28.9919 25.7878 28.8745 25.8543 28.7587 25.9237C28.6428 25.9931 28.5288 26.0654 28.4165 26.1404C28.3043 26.2154 28.1939 26.2931 28.0854 26.3735C27.977 26.4539 27.8706 26.537 27.7663 26.6227C27.6619 26.7083 27.5597 26.7965 27.4596 26.8871C27.3596 26.9778 27.2618 27.0709 27.1663 27.1663C27.0709 27.2618 26.9778 27.3596 26.8871 27.4596C26.7965 27.5597 26.7083 27.6619 26.6227 27.7663C26.537 27.8706 26.4539 27.977 26.3735 28.0854C26.2931 28.1939 26.2154 28.3043 26.1404 28.4165C26.0654 28.5288 25.9931 28.6428 25.9237 28.7587C25.8543 28.8745 25.7878 28.9919 25.7241 29.111C25.6605 29.23 25.5998 29.3506 25.5421 29.4727C25.4844 29.5947 25.4297 29.7181 25.378 29.8428C25.3263 29.9676 25.2777 30.0935 25.2322 30.2206C25.1868 30.3478 25.1444 30.4759 25.1053 30.6052C25.066 30.7343 25.03 30.8644 24.9972 30.9954C24.9644 31.1264 24.9348 31.2581 24.9085 31.3905C24.8821 31.5229 24.8591 31.6559 24.8393 31.7894C24.8195 31.923 24.8029 32.057 24.7897 32.1914C24.7765 32.3257 24.7665 32.4603 24.7599 32.5952C24.7533 32.7301 24.75 32.865 24.75 33C24.75 33.135 24.7533 33.2699 24.7599 33.4048C24.7665 33.5396 24.7765 33.6742 24.7897 33.8086C24.8029 33.943 24.8195 34.0769 24.8393 34.2105C24.8591 34.3441 24.8821 34.4771 24.9085 34.6094C24.9348 34.7419 24.9644 34.8736 24.9972 35.0045C25.03 35.1355 25.066 35.2656 25.1053 35.3948C25.1444 35.524 25.1868 35.6522 25.2322 35.7793C25.2777 35.9064 25.3263 36.0324 25.378 36.1571C25.4297 36.2818 25.4844 36.4052 25.5421 36.5273C25.5998 36.6494 25.6605 36.77 25.7241 36.889C25.7878 37.0081 25.8543 37.1255 25.9237 37.2413C25.9931 37.3571 26.0654 37.4712 26.1404 37.5834C26.2154 37.6957 26.2931 37.8061 26.3735 37.9145C26.4539 38.0229 26.537 38.1294 26.6227 38.2337C26.7083 38.3381 26.7965 38.4403 26.8871 38.5404C26.9778 38.6404 27.0709 38.7382 27.1663 38.8336C27.2618 38.9291 27.3596 39.0222 27.4596 39.1128C27.5597 39.2035 27.6619 39.2916 27.7663 39.3773C27.8706 39.463 27.977 39.546 28.0854 39.6265C28.1939 39.7068 28.3043 39.7846 28.4165 39.8596C28.5288 39.9346 28.6428 40.0068 28.7587 40.0762C28.8745 40.1456 28.9919 40.2122 29.111 40.2758C29.23 40.3394 29.3506 40.4002 29.4727 40.4579C29.5947 40.5156 29.7181 40.5703 29.8428 40.622C29.9676 40.6736 30.0935 40.7222 30.2206 40.7677C30.3478 40.8132 30.4759 40.8555 30.6052 40.8947C30.7343 40.934 30.8644 40.9699 30.9954 41.0027C31.1264 41.0355 31.2581 41.0651 31.3905 41.0915C31.5229 41.1179 31.6559 41.1409 31.7894 41.1607C31.923 41.1805 32.057 41.1971 32.1914 41.2103C32.3257 41.2235 32.4603 41.2334 32.5952 41.2401C32.7301 41.2467 32.865 41.25 33 41.25Z"></path></g></g></g></g><defs><rect id="path_0" x="0" y="0" width="260" height="260" rx="130" ry="130"/><rect id="path_1" x="0" y="0" width="66" height="66" rx="0" ry="0"/></defs></svg>
